G04*
G04 #@! TF.GenerationSoftware,Altium Limited,Altium Designer,24.2.2 (26)*
G04*
G04 Layer_Color=16711935*
%FSLAX44Y44*%
%MOMM*%
G71*
G04*
G04 #@! TF.SameCoordinates,B7ABE9E6-FD17-4C81-B930-EBB6A9B4DABB*
G04*
G04*
G04 #@! TF.FilePolarity,Positive*
G04*
G01*
G75*
%ADD10C,0.2000*%
%ADD12C,0.1000*%
D10*
X653860Y1019430D02*
X661860D01*
Y1035430D01*
X653860D02*
X661860D01*
X653860Y1019430D02*
Y1035430D01*
X679970Y1095490D02*
Y1157490D01*
X617970D02*
X679970D01*
X617970Y1095490D02*
Y1157490D01*
Y1095490D02*
X679970D01*
X397530Y1011160D02*
Y1098560D01*
X283930Y1011160D02*
X397530D01*
X283930D02*
Y1098560D01*
X397530D01*
X471300Y1170630D02*
X500300D01*
X471300D02*
Y1183630D01*
X500300D01*
Y1170630D02*
Y1183630D01*
X544450Y998030D02*
X560450D01*
X544450D02*
Y1006030D01*
X560450D01*
Y998030D02*
Y1006030D01*
X589090Y1007110D02*
X597090D01*
Y1023110D01*
X589090D02*
X597090D01*
X589090Y1007110D02*
Y1023110D01*
X586550Y1162940D02*
Y1178940D01*
X594550D01*
Y1162940D02*
Y1178940D01*
X586550Y1162940D02*
X594550D01*
D12*
X553000Y1143470D02*
X558000Y1138470D01*
X458000Y1143470D02*
X558000D01*
X458000Y1043470D02*
Y1143470D01*
Y1043470D02*
X558000D01*
Y1143470D01*
X744160Y1204430D02*
Y1231430D01*
X330260Y1204430D02*
X744160D01*
X330260D02*
Y1231430D01*
X744160D01*
X743700Y1070380D02*
Y1200380D01*
X691400D02*
X743700D01*
X691400Y1070380D02*
Y1200380D01*
Y1070380D02*
X743700D01*
X743820Y985520D02*
Y1066800D01*
X688740D02*
X743820D01*
X688740Y985520D02*
Y1066800D01*
Y985520D02*
X743820D01*
X520900Y1167290D02*
X545900D01*
X520900D02*
Y1187290D01*
X545900D01*
Y1167290D02*
Y1187290D01*
X576120Y1188490D02*
Y1191490D01*
Y1188490D02*
X582120D01*
Y1191490D01*
X576120D02*
X582120D01*
X416750Y1166750D02*
Y1182750D01*
X408750Y1166750D02*
X416750D01*
X408750D02*
Y1182750D01*
X416750D01*
X414910Y1057720D02*
X430910D01*
X414910D02*
Y1065720D01*
X430910D01*
Y1057720D02*
Y1065720D01*
X434300Y1120220D02*
Y1130220D01*
X429300Y1120220D02*
X434300D01*
X429300D02*
Y1130220D01*
X434300D01*
X416180Y1083500D02*
X432180D01*
Y1075500D02*
Y1083500D01*
X416180Y1075500D02*
X432180D01*
X416180D02*
Y1083500D01*
X413640Y1092360D02*
X429640D01*
X413640D02*
Y1112360D01*
X429640D01*
Y1092360D02*
Y1112360D01*
X426890Y1092360D02*
X429640Y1095110D01*
X365100Y1173200D02*
X388100Y1150200D01*
X323100Y1173200D02*
X388100D01*
X323100Y1138200D02*
Y1173200D01*
Y1138200D02*
X388100D01*
Y1173200D01*
X484120Y998030D02*
X486790Y1000700D01*
Y998030D02*
Y1006030D01*
X470790D02*
X486790D01*
X470790Y998030D02*
Y1006030D01*
Y998030D02*
X486790D01*
X508890Y995490D02*
X524890D01*
X508890D02*
Y1003490D01*
X524890D01*
Y995490D02*
Y1003490D01*
X579160Y1035130D02*
X584160D01*
Y1045130D01*
X579160D02*
X584160D01*
X579160Y1035130D02*
Y1045130D01*
X586550Y1082930D02*
X594550D01*
Y1098930D01*
X586550D02*
X594550D01*
X586550Y1082930D02*
Y1098930D01*
X613030Y1016190D02*
X629030D01*
Y1008190D02*
Y1016190D01*
X613030Y1008190D02*
X629030D01*
X613030D02*
Y1016190D01*
X645350Y1034670D02*
Y1050670D01*
X637350Y1034670D02*
X645350D01*
X637350D02*
Y1050670D01*
X645350D01*
X432690Y992950D02*
X448690D01*
X432690D02*
Y1000950D01*
X448690D01*
Y992950D02*
Y1000950D01*
X415280Y1042480D02*
X431280D01*
X415280D02*
Y1050480D01*
X431280D01*
Y1042480D02*
Y1050480D01*
X444120Y1023810D02*
X460120D01*
Y1015810D02*
Y1023810D01*
X444120Y1015810D02*
X460120D01*
X444120D02*
Y1023810D01*
X414910Y1015810D02*
X430910D01*
X414910D02*
Y1023810D01*
X430910D01*
Y1015810D02*
Y1023810D01*
X423990Y1167620D02*
Y1183620D01*
X431990D01*
Y1167620D02*
Y1183620D01*
X423990Y1167620D02*
X431990D01*
X400940Y1135540D02*
X416940D01*
X400940D02*
Y1155540D01*
X416940D01*
Y1135540D02*
Y1155540D01*
X414190Y1135540D02*
X416940Y1138290D01*
X440850Y1168020D02*
Y1184020D01*
X460850D01*
Y1168020D02*
Y1184020D01*
X440850Y1168020D02*
X460850D01*
X440850Y1170770D02*
X443600Y1168020D01*
X585280Y1122300D02*
X593280D01*
Y1138300D01*
X585280D02*
X593280D01*
X585280Y1122300D02*
Y1138300D01*
X600470Y1070990D02*
X608570D01*
X600470Y1054990D02*
Y1070990D01*
Y1054990D02*
X608570D01*
Y1070990D01*
X601790Y1145920D02*
X609790D01*
X601790Y1129920D02*
Y1145920D01*
Y1129920D02*
X609790D01*
Y1145920D01*
X486030Y1014540D02*
X502030D01*
X486030D02*
Y1022540D01*
X502030D01*
Y1014540D02*
Y1022540D01*
X555500D02*
X571500D01*
Y1014540D02*
Y1022540D01*
X555500Y1014540D02*
X571500D01*
X555500D02*
Y1022540D01*
X404630Y1003260D02*
X414630D01*
Y998260D02*
Y1003260D01*
X404630Y998260D02*
X414630D01*
X404630D02*
Y1003260D01*
X529360Y1013810D02*
X532360D01*
Y1019810D01*
X529360D02*
X532360D01*
X529360Y1013810D02*
Y1019810D01*
X645240Y1070570D02*
X655240D01*
Y1065570D02*
Y1070570D01*
X645240Y1065570D02*
X655240D01*
X645240D02*
Y1070570D01*
X612100Y1042630D02*
X622340D01*
Y1037630D02*
Y1042630D01*
X612100Y1037630D02*
X622340D01*
X612100D02*
Y1042630D01*
X562150Y1169440D02*
Y1172440D01*
Y1169440D02*
X568150D01*
Y1172440D01*
X562150D02*
X568150D01*
X514430Y1193840D02*
X524430D01*
X514430D02*
Y1198840D01*
X524430D01*
Y1193840D02*
Y1198840D01*
X330260Y954240D02*
X744160D01*
Y981240D01*
X330260D02*
X744160D01*
X330260Y954240D02*
Y981240D01*
M02*
