G04*
G04 #@! TF.GenerationSoftware,Altium Limited,Altium Designer,24.2.2 (26)*
G04*
G04 Layer_Color=128*
%FSLAX44Y44*%
%MOMM*%
G71*
G04*
G04 #@! TF.SameCoordinates,B7ABE9E6-FD17-4C81-B930-EBB6A9B4DABB*
G04*
G04*
G04 #@! TF.FilePolarity,Positive*
G04*
G01*
G75*
%ADD71C,0.1270*%
D71*
X722710Y1217930D02*
X732710D01*
X727710Y1212930D02*
Y1222930D01*
X697310Y1217930D02*
X707310D01*
X702310Y1212930D02*
Y1222930D01*
X671910Y1217930D02*
X681910D01*
X676910Y1212930D02*
Y1222930D01*
X646510Y1217930D02*
X656510D01*
X651510Y1212930D02*
Y1222930D01*
X621110Y1217930D02*
X631110D01*
X626110Y1212930D02*
Y1222930D01*
X595710Y1217930D02*
X605710D01*
X600710Y1212930D02*
Y1222930D01*
X570310Y1217930D02*
X580310D01*
X575310Y1212930D02*
Y1222930D01*
X544910Y1217930D02*
X554910D01*
X549910Y1212930D02*
Y1222930D01*
X519510Y1217930D02*
X529510D01*
X524510Y1212930D02*
Y1222930D01*
X494110Y1217930D02*
X504110D01*
X499110Y1212930D02*
Y1222930D01*
X468710Y1217930D02*
X478710D01*
X473710Y1212930D02*
Y1222930D01*
X443310Y1217930D02*
X453310D01*
X448310Y1212930D02*
Y1222930D01*
X417910Y1217930D02*
X427910D01*
X422910Y1212930D02*
Y1222930D01*
X392510Y1217930D02*
X402510D01*
X397510Y1212930D02*
Y1222930D01*
X367110Y1217930D02*
X377110D01*
X372110Y1212930D02*
Y1222930D01*
X341710Y1217930D02*
X351710D01*
X346710Y1212930D02*
Y1222930D01*
X699350Y1186180D02*
X710350D01*
X704850Y1180680D02*
Y1191680D01*
X724750Y1186180D02*
X735750D01*
X730250Y1180680D02*
Y1191680D01*
X699350Y1160780D02*
X710350D01*
X704850Y1155280D02*
Y1166280D01*
X724750Y1160780D02*
X735750D01*
X730250Y1155280D02*
Y1166280D01*
X699350Y1135380D02*
X710350D01*
X704850Y1129880D02*
Y1140880D01*
X724750Y1135380D02*
X735750D01*
X730250Y1129880D02*
Y1140880D01*
X699350Y1109980D02*
X710350D01*
X704850Y1104480D02*
Y1115480D01*
X724750Y1109980D02*
X735750D01*
X730250Y1104480D02*
Y1115480D01*
X699350Y1084580D02*
X710350D01*
X704850Y1079080D02*
Y1090080D01*
X724750Y1084580D02*
X735750D01*
X730250Y1079080D02*
Y1090080D01*
X698080Y1051560D02*
X709080D01*
X703580Y1046060D02*
Y1057060D01*
X723480Y1051560D02*
X734480D01*
X728980Y1046060D02*
Y1057060D01*
X698080Y1026160D02*
X709080D01*
X703580Y1020660D02*
Y1031660D01*
X723480Y1026160D02*
X734480D01*
X728980Y1020660D02*
Y1031660D01*
X698080Y1000760D02*
X709080D01*
X703580Y995260D02*
Y1006260D01*
X723480Y1000760D02*
X734480D01*
X728980Y995260D02*
Y1006260D01*
X384730Y1026860D02*
X388730D01*
X386730Y1024860D02*
Y1028860D01*
X377730Y1030860D02*
X381730D01*
X379730Y1028860D02*
Y1032860D01*
X377730Y1038860D02*
X381730D01*
X379730Y1036860D02*
Y1040860D01*
X384730Y1042860D02*
X388730D01*
X386730Y1040860D02*
Y1044860D01*
X377730Y1046860D02*
X381730D01*
X379730Y1044860D02*
Y1048860D01*
X384730Y1050860D02*
X388730D01*
X386730Y1048860D02*
Y1052860D01*
X384730Y1058860D02*
X388730D01*
X386730Y1056860D02*
Y1060860D01*
X377730Y1062860D02*
X381730D01*
X379730Y1060860D02*
Y1064860D01*
X384730Y1066860D02*
X388730D01*
X386730Y1064860D02*
Y1068860D01*
X377730Y1070860D02*
X381730D01*
X379730Y1068860D02*
Y1072860D01*
X377730Y1078860D02*
X381730D01*
X379730Y1076860D02*
Y1080860D01*
X384730Y1082860D02*
X388730D01*
X386730Y1080860D02*
Y1084860D01*
X384730Y1074860D02*
X388730D01*
X386730Y1072860D02*
Y1076860D01*
X384730Y1034860D02*
X388730D01*
X386730Y1032860D02*
Y1036860D01*
X368530Y1097560D02*
X381930D01*
X375230Y1090860D02*
Y1104260D01*
X368530Y1012160D02*
X381930D01*
X375230Y1005460D02*
Y1018860D01*
X321230Y1097560D02*
X334630D01*
X327930Y1090860D02*
Y1104260D01*
X321230Y1012160D02*
X334630D01*
X327930Y1005460D02*
Y1018860D01*
X722710Y967740D02*
X732710D01*
X727710Y962740D02*
Y972740D01*
X697310Y967740D02*
X707310D01*
X702310Y962740D02*
Y972740D01*
X671910Y967740D02*
X681910D01*
X676910Y962740D02*
Y972740D01*
X646510Y967740D02*
X656510D01*
X651510Y962740D02*
Y972740D01*
X621110Y967740D02*
X631110D01*
X626110Y962740D02*
Y972740D01*
X595710Y967740D02*
X605710D01*
X600710Y962740D02*
Y972740D01*
X570310Y967740D02*
X580310D01*
X575310Y962740D02*
Y972740D01*
X544910Y967740D02*
X554910D01*
X549910Y962740D02*
Y972740D01*
X519510Y967740D02*
X529510D01*
X524510Y962740D02*
Y972740D01*
X494110Y967740D02*
X504110D01*
X499110Y962740D02*
Y972740D01*
X468710Y967740D02*
X478710D01*
X473710Y962740D02*
Y972740D01*
X443310Y967740D02*
X453310D01*
X448310Y962740D02*
Y972740D01*
X417910Y967740D02*
X427910D01*
X422910Y962740D02*
Y972740D01*
X392510Y967740D02*
X402510D01*
X397510Y962740D02*
Y972740D01*
X367110Y967740D02*
X377110D01*
X372110Y962740D02*
Y972740D01*
X341710Y967740D02*
X351710D01*
X346710Y962740D02*
Y972740D01*
X439371Y1062035D02*
X440895D01*
X440133Y1061273D02*
Y1062797D01*
X527812Y1160526D02*
X529336D01*
X528574Y1159764D02*
Y1161288D01*
X500380Y1160526D02*
X501904D01*
X501142Y1159764D02*
Y1161288D01*
X465836Y1167130D02*
X467360D01*
X466598Y1166368D02*
Y1167892D01*
X518414Y1160780D02*
X519938D01*
X519176Y1160018D02*
Y1161542D01*
X440690Y1070610D02*
X442214D01*
X441452Y1069848D02*
Y1071372D01*
X435610Y1054862D02*
X437134D01*
X436372Y1054100D02*
Y1055624D01*
X459232Y1099566D02*
X460756D01*
X459994Y1098804D02*
Y1100328D01*
X573786Y1113917D02*
X575310D01*
X574548Y1113155D02*
Y1114679D01*
X501142Y1113536D02*
X502666D01*
X501904Y1112774D02*
Y1114298D01*
X518668Y1165860D02*
X520192D01*
X519430Y1165098D02*
Y1166622D01*
X429260Y1093216D02*
X430784D01*
X430022Y1092454D02*
Y1093978D01*
X534924Y1002030D02*
X536448D01*
X535686Y1001268D02*
Y1002792D01*
X544183Y1017691D02*
X545707D01*
X544945Y1016929D02*
Y1018454D01*
X544068Y1024890D02*
X545592D01*
X544830Y1024128D02*
Y1025652D01*
X554897Y1066639D02*
X556421D01*
X555659Y1065877D02*
Y1067401D01*
X553520Y1079500D02*
X555044D01*
X554282Y1078738D02*
Y1080262D01*
X478028Y1001776D02*
X479552D01*
X478790Y1001014D02*
Y1002538D01*
X596392Y1088136D02*
X597916D01*
X597154Y1087374D02*
Y1088898D01*
X529738Y1046882D02*
X531262D01*
X530500Y1046120D02*
Y1047644D01*
X524738Y1018540D02*
X526262D01*
X525500Y1017778D02*
Y1019302D01*
X479738Y1083124D02*
X481262D01*
X480500Y1082362D02*
Y1083886D01*
X489458Y1050290D02*
X490982D01*
X490220Y1049528D02*
Y1051052D01*
X491998Y1065246D02*
X493522D01*
X492760Y1064484D02*
Y1066008D01*
X440690Y1124458D02*
X442214D01*
X441452Y1123696D02*
Y1125220D01*
X406400Y1050860D02*
X407924D01*
X407162Y1050098D02*
Y1051622D01*
X554990Y1083818D02*
X556514D01*
X555752Y1083056D02*
Y1084580D01*
X572008Y1038606D02*
X573532D01*
X572770Y1037844D02*
Y1039368D01*
X437748Y1115970D02*
X439272D01*
X438510Y1115208D02*
Y1116732D01*
X366268Y1187450D02*
X367792D01*
X367030Y1186688D02*
Y1188212D01*
X463296Y1157224D02*
X464820D01*
X464058Y1156462D02*
Y1157986D01*
X534738Y1092962D02*
X536262D01*
X535500Y1092200D02*
Y1093724D01*
X474738Y1067538D02*
X476262D01*
X475500Y1066776D02*
Y1068300D01*
X470154Y1061212D02*
X471678D01*
X470916Y1060450D02*
Y1061974D01*
X604774Y1062990D02*
X606298D01*
X605536Y1062228D02*
Y1063752D01*
X457962Y1042670D02*
X459486D01*
X458724Y1041908D02*
Y1043432D01*
X460883Y1070102D02*
X462407D01*
X461645Y1069340D02*
Y1070864D01*
X443992Y1139698D02*
X445516D01*
X444754Y1138936D02*
Y1140460D01*
X523378Y991362D02*
X524902D01*
X524140Y990600D02*
Y992124D01*
X556514Y1051560D02*
X558038D01*
X557276Y1050798D02*
Y1052322D01*
X519430Y1045718D02*
X520954D01*
X520192Y1044956D02*
Y1046480D01*
X455676Y1052322D02*
X457200D01*
X456438Y1051560D02*
Y1053084D01*
X509738Y1050544D02*
X511262D01*
X510500Y1049782D02*
Y1051306D01*
X459232Y958342D02*
X460756D01*
X459994Y957580D02*
Y959104D01*
X533908Y1110488D02*
X535432D01*
X534670Y1109726D02*
Y1111250D01*
M02*
