G04*
G04 #@! TF.GenerationSoftware,Altium Limited,Altium Designer,24.2.2 (26)*
G04*
G04 Layer_Color=255*
%FSLAX44Y44*%
%MOMM*%
G71*
G04*
G04 #@! TF.SameCoordinates,B7ABE9E6-FD17-4C81-B930-EBB6A9B4DABB*
G04*
G04*
G04 #@! TF.FilePolarity,Positive*
G04*
G01*
G75*
%ADD72R,1.5000X1.5000*%
%ADD73C,1.5000*%
%ADD74C,1.6500*%
%ADD75R,1.6500X1.6500*%
%ADD76C,0.7000*%
%ADD77C,2.0100*%
D72*
X727710Y1217930D02*
D03*
X346710Y967740D02*
D03*
D73*
X702310Y1217930D02*
D03*
X676910D02*
D03*
X651510D02*
D03*
X626110D02*
D03*
X600710D02*
D03*
X575310D02*
D03*
X549910D02*
D03*
X524510D02*
D03*
X499110D02*
D03*
X473710D02*
D03*
X448310D02*
D03*
X422910D02*
D03*
X397510D02*
D03*
X372110D02*
D03*
X346710D02*
D03*
X727710Y967740D02*
D03*
X702310D02*
D03*
X676910D02*
D03*
X651510D02*
D03*
X626110D02*
D03*
X600710D02*
D03*
X575310D02*
D03*
X549910D02*
D03*
X524510D02*
D03*
X499110D02*
D03*
X473710D02*
D03*
X448310D02*
D03*
X422910D02*
D03*
X397510D02*
D03*
X372110D02*
D03*
D74*
X704850Y1186180D02*
D03*
X730250D02*
D03*
X704850Y1160780D02*
D03*
X730250D02*
D03*
X704850Y1135380D02*
D03*
X730250D02*
D03*
X704850Y1109980D02*
D03*
X730250D02*
D03*
X704850Y1084580D02*
D03*
X703580Y1051560D02*
D03*
X728980D02*
D03*
X703580Y1026160D02*
D03*
X728980D02*
D03*
X703580Y1000760D02*
D03*
D75*
X730250Y1084580D02*
D03*
X728980Y1000760D02*
D03*
D76*
X386730Y1026860D02*
D03*
X379730Y1030860D02*
D03*
Y1038860D02*
D03*
X386730Y1042860D02*
D03*
X379730Y1046860D02*
D03*
X386730Y1050860D02*
D03*
Y1058860D02*
D03*
X379730Y1062860D02*
D03*
X386730Y1066860D02*
D03*
X379730Y1070860D02*
D03*
Y1078860D02*
D03*
X386730Y1082860D02*
D03*
Y1074860D02*
D03*
Y1034860D02*
D03*
D77*
X375230Y1097560D02*
D03*
Y1012160D02*
D03*
X327930Y1097560D02*
D03*
Y1012160D02*
D03*
M02*
