G04*
G04 #@! TF.GenerationSoftware,Altium Limited,Altium Designer,24.2.2 (26)*
G04*
G04 Layer_Color=32768*
%FSLAX44Y44*%
%MOMM*%
G71*
G04*
G04 #@! TF.SameCoordinates,B7ABE9E6-FD17-4C81-B930-EBB6A9B4DABB*
G04*
G04*
G04 #@! TF.FilePolarity,Positive*
G04*
G01*
G75*
%ADD12C,0.1000*%
%ADD82C,0.0500*%
D12*
X607970Y1059490D02*
Y1185490D01*
X689970D01*
Y1059490D02*
Y1185490D01*
X607970Y1059490D02*
X689970D01*
X510650Y1157040D02*
X556150D01*
X510650D02*
Y1197540D01*
X556150D01*
Y1157040D02*
Y1197540D01*
X418930Y992110D02*
Y1117610D01*
X273930Y992110D02*
X418930D01*
X273930D02*
Y1117610D01*
X418930D01*
X461300Y1153630D02*
X512800D01*
X461300D02*
Y1200630D01*
X512800D01*
Y1153630D02*
Y1200630D01*
D82*
X643860Y1006680D02*
X671860D01*
Y1048180D01*
X643860D02*
X671860D01*
X643860Y1006680D02*
Y1048180D01*
X440750Y1160720D02*
X575250D01*
X440750Y1026220D02*
Y1160720D01*
Y1026220D02*
X575250D01*
Y1160720D01*
X746660Y1201930D02*
Y1233930D01*
X327760Y1201930D02*
X746660D01*
X327760D02*
Y1233930D01*
X746660D01*
X746200Y1067880D02*
Y1202880D01*
X688900D02*
X746200D01*
X688900Y1067880D02*
Y1202880D01*
Y1067880D02*
X746200D01*
X746320Y983020D02*
Y1069300D01*
X686240D02*
X746320D01*
X686240Y983020D02*
Y1069300D01*
Y983020D02*
X746320D01*
X571920Y1186290D02*
Y1193690D01*
Y1186290D02*
X586320D01*
Y1193690D01*
X571920D02*
X586320D01*
X420250Y1159500D02*
Y1190000D01*
X405250Y1159500D02*
X420250D01*
X405250D02*
Y1190000D01*
X420250D01*
X407660Y1054220D02*
X438160D01*
X407660D02*
Y1069220D01*
X438160D01*
Y1054220D02*
Y1069220D01*
X436500Y1115970D02*
Y1134470D01*
X427100Y1115970D02*
X436500D01*
X427100D02*
Y1134470D01*
X436500D01*
X409180Y1087000D02*
X439180D01*
Y1072000D02*
Y1087000D01*
X409180Y1072000D02*
X439180D01*
X409180D02*
Y1087000D01*
X405390Y1088860D02*
X437890D01*
X405390D02*
Y1115860D01*
X437890D01*
Y1088860D02*
Y1115860D01*
X319600Y1198450D02*
X391600D01*
X319600Y1112950D02*
Y1198450D01*
Y1112950D02*
X391600D01*
Y1198450D01*
X495540Y992780D02*
Y1011280D01*
X462040D02*
X495540D01*
X462040Y992780D02*
Y1011280D01*
Y992780D02*
X495540D01*
X501640Y991990D02*
X532140D01*
X501640D02*
Y1006990D01*
X532140D01*
Y991990D02*
Y1006990D01*
X531700Y988030D02*
X573200D01*
X531700D02*
Y1016030D01*
X573200D01*
Y988030D02*
Y1016030D01*
X579090Y994360D02*
X607090D01*
Y1035860D01*
X579090D02*
X607090D01*
X579090Y994360D02*
Y1035860D01*
X576960Y1030880D02*
X586360D01*
Y1049380D01*
X576960D02*
X586360D01*
X576960Y1030880D02*
Y1049380D01*
X583050Y1075680D02*
X598050D01*
Y1106180D01*
X583050D02*
X598050D01*
X583050Y1075680D02*
Y1106180D01*
X606030Y1019690D02*
X636030D01*
Y1004690D02*
Y1019690D01*
X606030Y1004690D02*
X636030D01*
X606030D02*
Y1019690D01*
X648850Y1027420D02*
Y1057920D01*
X633850Y1027420D02*
X648850D01*
X633850D02*
Y1057920D01*
X648850D01*
X425690Y989450D02*
X455690D01*
X425690D02*
Y1004450D01*
X455690D01*
Y989450D02*
Y1004450D01*
X408030Y1038980D02*
X438530D01*
X408030D02*
Y1053980D01*
X438530D01*
Y1038980D02*
Y1053980D01*
X437120Y1027310D02*
X467120D01*
Y1012310D02*
Y1027310D01*
X437120Y1012310D02*
X467120D01*
X437120D02*
Y1027310D01*
X407660Y1012310D02*
X438160D01*
X407660D02*
Y1027310D01*
X438160D01*
Y1012310D02*
Y1027310D01*
X420490Y1160870D02*
Y1190370D01*
X435490D01*
Y1160870D02*
Y1190370D01*
X420490Y1160870D02*
X435490D01*
X392690Y1132040D02*
X425190D01*
X392690D02*
Y1159040D01*
X425190D01*
Y1132040D02*
Y1159040D01*
X437350Y1159770D02*
Y1192270D01*
X464350D01*
Y1159770D02*
Y1192270D01*
X437350Y1159770D02*
X464350D01*
X581780Y1115050D02*
X596780D01*
Y1145550D01*
X581780D02*
X596780D01*
X581780Y1115050D02*
Y1145550D01*
X576550Y1150190D02*
Y1191690D01*
X604550D01*
Y1150190D02*
Y1191690D01*
X576550Y1150190D02*
X604550D01*
X598020Y1075390D02*
X611020D01*
X598020Y1050590D02*
Y1075390D01*
Y1050590D02*
X611020D01*
Y1075390D01*
X598290Y1152670D02*
X613290D01*
X598290Y1123170D02*
Y1152670D01*
Y1123170D02*
X613290D01*
Y1152670D01*
X478780Y1011040D02*
X509280D01*
X478780D02*
Y1026040D01*
X509280D01*
Y1011040D02*
Y1026040D01*
X548500D02*
X578500D01*
Y1011040D02*
Y1026040D01*
X548500Y1011040D02*
X578500D01*
X548500D02*
Y1026040D01*
X400380Y1005460D02*
X418880D01*
Y996060D02*
Y1005460D01*
X400380Y996060D02*
X418880D01*
X400380D02*
Y1005460D01*
X527160Y1009610D02*
X534560D01*
Y1024010D01*
X527160D02*
X534560D01*
X527160Y1009610D02*
Y1024010D01*
X640990Y1072770D02*
X659490D01*
Y1063370D02*
Y1072770D01*
X640990Y1063370D02*
X659490D01*
X640990D02*
Y1072770D01*
X605720Y1045630D02*
X628720D01*
Y1034630D02*
Y1045630D01*
X605720Y1034630D02*
X628720D01*
X605720D02*
Y1045630D01*
X557950Y1167240D02*
Y1174640D01*
Y1167240D02*
X572350D01*
Y1174640D01*
X557950D02*
X572350D01*
X510180Y1191640D02*
X528680D01*
X510180D02*
Y1201040D01*
X528680D01*
Y1191640D02*
Y1201040D01*
X327760Y951740D02*
X746660D01*
Y983740D01*
X327760D02*
X746660D01*
X327760Y951740D02*
Y983740D01*
M02*
