G04*
G04 #@! TF.GenerationSoftware,Altium Limited,Altium Designer,24.2.2 (26)*
G04*
G04 Layer_Physical_Order=3*
G04 Layer_Color=36540*
%FSLAX44Y44*%
%MOMM*%
G71*
G04*
G04 #@! TF.SameCoordinates,B7ABE9E6-FD17-4C81-B930-EBB6A9B4DABB*
G04*
G04*
G04 #@! TF.FilePolarity,Positive*
G04*
G01*
G75*
%ADD71C,0.1270*%
%ADD72R,1.5000X1.5000*%
%ADD73C,1.5000*%
%ADD74C,1.6500*%
%ADD75R,1.6500X1.6500*%
%ADD76C,0.7000*%
%ADD77C,2.0100*%
%ADD78C,0.2540*%
D71*
X528574Y1139952D02*
Y1160526D01*
Y1139952D02*
X605536Y1062990D01*
X445262Y1118362D02*
X480500Y1083124D01*
X438912Y1118362D02*
X445262D01*
X422910Y1134364D02*
Y1217930D01*
Y1134364D02*
X438912Y1118362D01*
X555752Y1083818D02*
X572770Y1066800D01*
Y1038606D02*
Y1066800D01*
X397510Y1217930D02*
X407416Y1227836D01*
X530225D01*
X534416Y1223645D01*
Y1204214D02*
Y1223645D01*
Y1204214D02*
X699770Y1038860D01*
X716280D01*
X728980Y1026160D01*
D72*
X727710Y1217930D02*
D03*
X346710Y967740D02*
D03*
D73*
X702310Y1217930D02*
D03*
X676910D02*
D03*
X651510D02*
D03*
X626110D02*
D03*
X600710D02*
D03*
X575310D02*
D03*
X549910D02*
D03*
X524510D02*
D03*
X499110D02*
D03*
X473710D02*
D03*
X448310D02*
D03*
X422910D02*
D03*
X397510D02*
D03*
X372110D02*
D03*
X346710D02*
D03*
X727710Y967740D02*
D03*
X702310D02*
D03*
X676910D02*
D03*
X651510D02*
D03*
X626110D02*
D03*
X600710D02*
D03*
X575310D02*
D03*
X549910D02*
D03*
X524510D02*
D03*
X499110D02*
D03*
X473710D02*
D03*
X448310D02*
D03*
X422910D02*
D03*
X397510D02*
D03*
X372110D02*
D03*
D74*
X704850Y1186180D02*
D03*
X730250D02*
D03*
X704850Y1160780D02*
D03*
X730250D02*
D03*
X704850Y1135380D02*
D03*
X730250D02*
D03*
X704850Y1109980D02*
D03*
X730250D02*
D03*
X704850Y1084580D02*
D03*
X703580Y1051560D02*
D03*
X728980D02*
D03*
X703580Y1026160D02*
D03*
X728980D02*
D03*
X703580Y1000760D02*
D03*
D75*
X730250Y1084580D02*
D03*
X728980Y1000760D02*
D03*
D76*
X386730Y1026860D02*
D03*
X379730Y1030860D02*
D03*
Y1038860D02*
D03*
X386730Y1042860D02*
D03*
X379730Y1046860D02*
D03*
X386730Y1050860D02*
D03*
Y1058860D02*
D03*
X379730Y1062860D02*
D03*
X386730Y1066860D02*
D03*
X379730Y1070860D02*
D03*
Y1078860D02*
D03*
X386730Y1082860D02*
D03*
Y1074860D02*
D03*
Y1034860D02*
D03*
D77*
X375230Y1097560D02*
D03*
Y1012160D02*
D03*
X327930Y1097560D02*
D03*
Y1012160D02*
D03*
D78*
X440133Y1062035D02*
D03*
X528574Y1160526D02*
D03*
X501142D02*
D03*
X466598Y1167130D02*
D03*
X519176Y1160780D02*
D03*
X441452Y1070610D02*
D03*
X436372Y1054862D02*
D03*
X459994Y1099566D02*
D03*
X574548Y1113917D02*
D03*
X501904Y1113536D02*
D03*
X519430Y1165860D02*
D03*
X430022Y1093216D02*
D03*
X535686Y1002030D02*
D03*
X544945Y1017691D02*
D03*
X544830Y1024890D02*
D03*
X555659Y1066639D02*
D03*
X554282Y1079500D02*
D03*
X478790Y1001776D02*
D03*
X597154Y1088136D02*
D03*
X530500Y1046882D02*
D03*
X525500Y1018540D02*
D03*
X480500Y1083124D02*
D03*
X490220Y1050290D02*
D03*
X492760Y1065246D02*
D03*
X441452Y1124458D02*
D03*
X407162Y1050860D02*
D03*
X555752Y1083818D02*
D03*
X572770Y1038606D02*
D03*
X438510Y1115970D02*
D03*
X367030Y1187450D02*
D03*
X464058Y1157224D02*
D03*
X535500Y1092962D02*
D03*
X475500Y1067538D02*
D03*
X470916Y1061212D02*
D03*
X605536Y1062990D02*
D03*
X458724Y1042670D02*
D03*
X461645Y1070102D02*
D03*
X444754Y1139698D02*
D03*
X524140Y991362D02*
D03*
X557276Y1051560D02*
D03*
X520192Y1045718D02*
D03*
X456438Y1052322D02*
D03*
X510500Y1050544D02*
D03*
X459994Y958342D02*
D03*
X534670Y1110488D02*
D03*
M02*
