G04*
G04 #@! TF.GenerationSoftware,Altium Limited,Altium Designer,24.2.2 (26)*
G04*
G04 Layer_Color=8388736*
%FSLAX44Y44*%
%MOMM*%
G71*
G04*
G04 #@! TF.SameCoordinates,B7ABE9E6-FD17-4C81-B930-EBB6A9B4DABB*
G04*
G04*
G04 #@! TF.FilePolarity,Negative*
G04*
G01*
G75*
%ADD39R,1.2032X1.1532*%
%ADD40R,1.6782X0.5032*%
%ADD41R,0.5032X1.6782*%
%ADD42R,1.8032X1.6032*%
%ADD43R,1.1032X1.0032*%
%ADD44R,0.6732X0.6432*%
%ADD45R,1.4032X0.5032*%
%ADD46R,1.2032X0.4032*%
%ADD47R,1.1032X0.8532*%
%ADD48R,0.8532X1.1032*%
%ADD49R,0.8432X0.8532*%
%ADD50R,1.1032X1.1532*%
%ADD51R,1.3532X0.7532*%
%ADD52R,3.4032X1.9532*%
%ADD53R,1.1532X1.9532*%
%ADD54R,1.2032X0.9032*%
%ADD55R,0.8032X0.9032*%
%ADD56R,1.0532X1.1532*%
%ADD57R,1.1532X1.2032*%
%ADD58R,0.9032X0.8532*%
%ADD59R,0.7532X1.3532*%
%ADD60R,1.1932X0.9832*%
%ADD61R,0.8532X0.8432*%
%ADD62R,0.6432X0.6732*%
%ADD63R,0.9032X0.8032*%
%ADD64R,1.7032X1.7032*%
%ADD65C,1.7032*%
%ADD66C,1.8532*%
%ADD67R,1.8532X1.8532*%
%ADD68C,0.9032*%
%ADD69C,2.2132*%
%ADD70C,0.4572*%
D39*
X657860Y1035430D02*
D03*
Y1019430D02*
D03*
X593090Y1023110D02*
D03*
Y1007110D02*
D03*
X590550Y1162940D02*
D03*
Y1178940D02*
D03*
D40*
X565380Y1130970D02*
D03*
Y1125970D02*
D03*
Y1120970D02*
D03*
Y1115970D02*
D03*
Y1110970D02*
D03*
Y1105970D02*
D03*
Y1100970D02*
D03*
Y1095970D02*
D03*
Y1090970D02*
D03*
Y1085970D02*
D03*
Y1080970D02*
D03*
Y1075970D02*
D03*
Y1070970D02*
D03*
Y1065970D02*
D03*
Y1060970D02*
D03*
Y1055970D02*
D03*
X450620D02*
D03*
Y1060970D02*
D03*
Y1065970D02*
D03*
Y1070970D02*
D03*
Y1075970D02*
D03*
Y1080970D02*
D03*
Y1085970D02*
D03*
Y1090970D02*
D03*
Y1095970D02*
D03*
Y1100970D02*
D03*
Y1105970D02*
D03*
Y1110970D02*
D03*
Y1115970D02*
D03*
Y1120970D02*
D03*
Y1125970D02*
D03*
Y1130970D02*
D03*
D41*
X545500Y1036090D02*
D03*
X540500D02*
D03*
X535500D02*
D03*
X530500D02*
D03*
X525500D02*
D03*
X520500D02*
D03*
X515500D02*
D03*
X510500D02*
D03*
X505500D02*
D03*
X500500D02*
D03*
X495500D02*
D03*
X490500D02*
D03*
X485500D02*
D03*
X480500D02*
D03*
X475500D02*
D03*
X470500D02*
D03*
Y1150850D02*
D03*
X475500D02*
D03*
X480500D02*
D03*
X485500D02*
D03*
X490500D02*
D03*
X495500D02*
D03*
X500500D02*
D03*
X505500D02*
D03*
X510500D02*
D03*
X515500D02*
D03*
X520500D02*
D03*
X525500D02*
D03*
X530500D02*
D03*
X535500D02*
D03*
X540500D02*
D03*
X545500D02*
D03*
D42*
X626470Y1084490D02*
D03*
Y1168490D02*
D03*
X671470Y1084490D02*
D03*
Y1168490D02*
D03*
X648970D02*
D03*
D43*
X541650Y1183540D02*
D03*
X525150D02*
D03*
Y1171040D02*
D03*
X541650D02*
D03*
D44*
X582470Y1189990D02*
D03*
X575770D02*
D03*
X568500Y1170940D02*
D03*
X561800D02*
D03*
D45*
X399230Y1082360D02*
D03*
Y1077360D02*
D03*
Y1072360D02*
D03*
Y1067360D02*
D03*
Y1062360D02*
D03*
Y1057360D02*
D03*
Y1052360D02*
D03*
Y1047360D02*
D03*
Y1042360D02*
D03*
Y1037360D02*
D03*
Y1032360D02*
D03*
Y1027360D02*
D03*
D46*
X353430Y1054860D02*
D03*
X322430D02*
D03*
D47*
X412750Y1182000D02*
D03*
Y1167500D02*
D03*
X590550Y1098180D02*
D03*
Y1083680D02*
D03*
X641350Y1049920D02*
D03*
Y1035420D02*
D03*
X589280Y1137550D02*
D03*
Y1123050D02*
D03*
D48*
X430160Y1061720D02*
D03*
X415660D02*
D03*
X524140Y999490D02*
D03*
X509640D02*
D03*
X430530Y1046480D02*
D03*
X416030D02*
D03*
X430160Y1019810D02*
D03*
X415660D02*
D03*
X501280Y1018540D02*
D03*
X486780D02*
D03*
D49*
X431800Y1129720D02*
D03*
Y1120720D02*
D03*
X581660Y1044630D02*
D03*
Y1035630D02*
D03*
D50*
X416180Y1079500D02*
D03*
X432180D02*
D03*
X613030Y1012190D02*
D03*
X629030D02*
D03*
X448690Y996950D02*
D03*
X432690D02*
D03*
X444120Y1019810D02*
D03*
X460120D02*
D03*
X555500Y1018540D02*
D03*
X571500D02*
D03*
D51*
X429640Y1102360D02*
D03*
X413640D02*
D03*
X416940Y1145540D02*
D03*
X400940D02*
D03*
D52*
X355600Y1124200D02*
D03*
D53*
X332600Y1187200D02*
D03*
X355600D02*
D03*
X378600D02*
D03*
D54*
X493300Y1187130D02*
D03*
D55*
X476300D02*
D03*
Y1167130D02*
D03*
X495300D02*
D03*
D56*
X470790Y1002030D02*
D03*
X486790D02*
D03*
D57*
X560450D02*
D03*
X544450D02*
D03*
D58*
X427990Y1168870D02*
D03*
Y1182370D02*
D03*
X605790Y1131170D02*
D03*
Y1144670D02*
D03*
D59*
X450850Y1168020D02*
D03*
Y1184020D02*
D03*
D60*
X604520Y1055990D02*
D03*
Y1069990D02*
D03*
D61*
X405130Y1000760D02*
D03*
X414130D02*
D03*
X645740Y1068070D02*
D03*
X654740D02*
D03*
X523930Y1196340D02*
D03*
X514930D02*
D03*
D62*
X530860Y1020160D02*
D03*
Y1013460D02*
D03*
D63*
X611720Y1040130D02*
D03*
X622720D02*
D03*
D64*
X727710Y1217930D02*
D03*
X346710Y967740D02*
D03*
D65*
X702310Y1217930D02*
D03*
X676910D02*
D03*
X651510D02*
D03*
X626110D02*
D03*
X600710D02*
D03*
X575310D02*
D03*
X549910D02*
D03*
X524510D02*
D03*
X499110D02*
D03*
X473710D02*
D03*
X448310D02*
D03*
X422910D02*
D03*
X397510D02*
D03*
X372110D02*
D03*
X346710D02*
D03*
X727710Y967740D02*
D03*
X702310D02*
D03*
X676910D02*
D03*
X651510D02*
D03*
X626110D02*
D03*
X600710D02*
D03*
X575310D02*
D03*
X549910D02*
D03*
X524510D02*
D03*
X499110D02*
D03*
X473710D02*
D03*
X448310D02*
D03*
X422910D02*
D03*
X397510D02*
D03*
X372110D02*
D03*
D66*
X704850Y1186180D02*
D03*
X730250D02*
D03*
X704850Y1160780D02*
D03*
X730250D02*
D03*
X704850Y1135380D02*
D03*
X730250D02*
D03*
X704850Y1109980D02*
D03*
X730250D02*
D03*
X704850Y1084580D02*
D03*
X703580Y1051560D02*
D03*
X728980D02*
D03*
X703580Y1026160D02*
D03*
X728980D02*
D03*
X703580Y1000760D02*
D03*
D67*
X730250Y1084580D02*
D03*
X728980Y1000760D02*
D03*
D68*
X386730Y1026860D02*
D03*
X379730Y1030860D02*
D03*
Y1038860D02*
D03*
X386730Y1042860D02*
D03*
X379730Y1046860D02*
D03*
X386730Y1050860D02*
D03*
Y1058860D02*
D03*
X379730Y1062860D02*
D03*
X386730Y1066860D02*
D03*
X379730Y1070860D02*
D03*
Y1078860D02*
D03*
X386730Y1082860D02*
D03*
Y1074860D02*
D03*
Y1034860D02*
D03*
D69*
X375230Y1097560D02*
D03*
Y1012160D02*
D03*
X327930Y1097560D02*
D03*
Y1012160D02*
D03*
D70*
X440133Y1062035D02*
D03*
X528574Y1160526D02*
D03*
X501142D02*
D03*
X466598Y1167130D02*
D03*
X519176Y1160780D02*
D03*
X441452Y1070610D02*
D03*
X436372Y1054862D02*
D03*
X459994Y1099566D02*
D03*
X574548Y1113917D02*
D03*
X501904Y1113536D02*
D03*
X519430Y1165860D02*
D03*
X430022Y1093216D02*
D03*
X535686Y1002030D02*
D03*
X544945Y1017691D02*
D03*
X544830Y1024890D02*
D03*
X555659Y1066639D02*
D03*
X554282Y1079500D02*
D03*
X478790Y1001776D02*
D03*
X597154Y1088136D02*
D03*
X530500Y1046882D02*
D03*
X525500Y1018540D02*
D03*
X480500Y1083124D02*
D03*
X490220Y1050290D02*
D03*
X492760Y1065246D02*
D03*
X441452Y1124458D02*
D03*
X407162Y1050860D02*
D03*
X555752Y1083818D02*
D03*
X572770Y1038606D02*
D03*
X438510Y1115970D02*
D03*
X367030Y1187450D02*
D03*
X464058Y1157224D02*
D03*
X535500Y1092962D02*
D03*
X475500Y1067538D02*
D03*
X470916Y1061212D02*
D03*
X605536Y1062990D02*
D03*
X458724Y1042670D02*
D03*
X461645Y1070102D02*
D03*
X444754Y1139698D02*
D03*
X524140Y991362D02*
D03*
X557276Y1051560D02*
D03*
X520192Y1045718D02*
D03*
X456438Y1052322D02*
D03*
X510500Y1050544D02*
D03*
X459994Y958342D02*
D03*
X534670Y1110488D02*
D03*
M02*
