G04*
G04 #@! TF.GenerationSoftware,Altium Limited,Altium Designer,24.2.2 (26)*
G04*
G04 Layer_Color=2752767*
%FSLAX44Y44*%
%MOMM*%
G71*
G04*
G04 #@! TF.SameCoordinates,B7ABE9E6-FD17-4C81-B930-EBB6A9B4DABB*
G04*
G04*
G04 #@! TF.FilePolarity,Positive*
G04*
G01*
G75*
%ADD71C,0.1270*%
%ADD83C,0.1693*%
D71*
X727710Y1212850D02*
X722630Y1223010D01*
X732790D01*
X727710Y1212850D01*
X702310D02*
X697230Y1223010D01*
X707390D01*
X702310Y1212850D01*
X676910D02*
X671830Y1223010D01*
X681990D01*
X676910Y1212850D01*
X651510D02*
X646430Y1223010D01*
X656590D01*
X651510Y1212850D01*
X626110D02*
X621030Y1223010D01*
X631190D01*
X626110Y1212850D01*
X600710D02*
X595630Y1223010D01*
X605790D01*
X600710Y1212850D01*
X575310D02*
X570230Y1223010D01*
X580390D01*
X575310Y1212850D01*
X549910D02*
X544830Y1223010D01*
X554990D01*
X549910Y1212850D01*
X524510D02*
X519430Y1223010D01*
X529590D01*
X524510Y1212850D01*
X499110D02*
X494030Y1223010D01*
X504190D01*
X499110Y1212850D01*
X473710D02*
X468630Y1223010D01*
X478790D01*
X473710Y1212850D01*
X448310D02*
X443230Y1223010D01*
X453390D01*
X448310Y1212850D01*
X422910D02*
X417830Y1223010D01*
X427990D01*
X422910Y1212850D01*
X397510D02*
X392430Y1223010D01*
X402590D01*
X397510Y1212850D01*
X372110D02*
X367030Y1223010D01*
X377190D01*
X372110Y1212850D01*
X346710D02*
X341630Y1223010D01*
X351790D01*
X346710Y1212850D01*
X704850Y1181100D02*
X707390Y1183640D01*
X709930D01*
X707390Y1186180D01*
X709930Y1188720D01*
X707390D01*
X704850Y1191260D01*
X702310Y1188720D01*
X699770D01*
X702310Y1186180D01*
X699770Y1183640D01*
X702310D01*
X704850Y1181100D01*
X730250D02*
X732790Y1183640D01*
X735330D01*
X732790Y1186180D01*
X735330Y1188720D01*
X732790D01*
X730250Y1191260D01*
X727710Y1188720D01*
X725170D01*
X727710Y1186180D01*
X725170Y1183640D01*
X727710D01*
X730250Y1181100D01*
X704850Y1155700D02*
X707390Y1158240D01*
X709930D01*
X707390Y1160780D01*
X709930Y1163320D01*
X707390D01*
X704850Y1165860D01*
X702310Y1163320D01*
X699770D01*
X702310Y1160780D01*
X699770Y1158240D01*
X702310D01*
X704850Y1155700D01*
X730250D02*
X732790Y1158240D01*
X735330D01*
X732790Y1160780D01*
X735330Y1163320D01*
X732790D01*
X730250Y1165860D01*
X727710Y1163320D01*
X725170D01*
X727710Y1160780D01*
X725170Y1158240D01*
X727710D01*
X730250Y1155700D01*
X704850Y1130300D02*
X707390Y1132840D01*
X709930D01*
X707390Y1135380D01*
X709930Y1137920D01*
X707390D01*
X704850Y1140460D01*
X702310Y1137920D01*
X699770D01*
X702310Y1135380D01*
X699770Y1132840D01*
X702310D01*
X704850Y1130300D01*
X730250D02*
X732790Y1132840D01*
X735330D01*
X732790Y1135380D01*
X735330Y1137920D01*
X732790D01*
X730250Y1140460D01*
X727710Y1137920D01*
X725170D01*
X727710Y1135380D01*
X725170Y1132840D01*
X727710D01*
X730250Y1130300D01*
X704850Y1104900D02*
X707390Y1107440D01*
X709930D01*
X707390Y1109980D01*
X709930Y1112520D01*
X707390D01*
X704850Y1115060D01*
X702310Y1112520D01*
X699770D01*
X702310Y1109980D01*
X699770Y1107440D01*
X702310D01*
X704850Y1104900D01*
X730250D02*
X732790Y1107440D01*
X735330D01*
X732790Y1109980D01*
X735330Y1112520D01*
X732790D01*
X730250Y1115060D01*
X727710Y1112520D01*
X725170D01*
X727710Y1109980D01*
X725170Y1107440D01*
X727710D01*
X730250Y1104900D01*
X704850Y1079500D02*
X707390Y1082040D01*
X709930D01*
X707390Y1084580D01*
X709930Y1087120D01*
X707390D01*
X704850Y1089660D01*
X702310Y1087120D01*
X699770D01*
X702310Y1084580D01*
X699770Y1082040D01*
X702310D01*
X704850Y1079500D01*
X730250D02*
X732790Y1082040D01*
X735330D01*
X732790Y1084580D01*
X735330Y1087120D01*
X732790D01*
X730250Y1089660D01*
X727710Y1087120D01*
X725170D01*
X727710Y1084580D01*
X725170Y1082040D01*
X727710D01*
X730250Y1079500D01*
X703580Y1046480D02*
X706120Y1049020D01*
X708660D01*
X706120Y1051560D01*
X708660Y1054100D01*
X706120D01*
X703580Y1056640D01*
X701040Y1054100D01*
X698500D01*
X701040Y1051560D01*
X698500Y1049020D01*
X701040D01*
X703580Y1046480D01*
X728980D02*
X731520Y1049020D01*
X734060D01*
X731520Y1051560D01*
X734060Y1054100D01*
X731520D01*
X728980Y1056640D01*
X726440Y1054100D01*
X723900D01*
X726440Y1051560D01*
X723900Y1049020D01*
X726440D01*
X728980Y1046480D01*
X703580Y1021080D02*
X706120Y1023620D01*
X708660D01*
X706120Y1026160D01*
X708660Y1028700D01*
X706120D01*
X703580Y1031240D01*
X701040Y1028700D01*
X698500D01*
X701040Y1026160D01*
X698500Y1023620D01*
X701040D01*
X703580Y1021080D01*
X728980D02*
X731520Y1023620D01*
X734060D01*
X731520Y1026160D01*
X734060Y1028700D01*
X731520D01*
X728980Y1031240D01*
X726440Y1028700D01*
X723900D01*
X726440Y1026160D01*
X723900Y1023620D01*
X726440D01*
X728980Y1021080D01*
X703580Y995680D02*
X706120Y998220D01*
X708660D01*
X706120Y1000760D01*
X708660Y1003300D01*
X706120D01*
X703580Y1005840D01*
X701040Y1003300D01*
X698500D01*
X701040Y1000760D01*
X698500Y998220D01*
X701040D01*
X703580Y995680D01*
X728980D02*
X731520Y998220D01*
X734060D01*
X731520Y1000760D01*
X734060Y1003300D01*
X731520D01*
X728980Y1005840D01*
X726440Y1003300D01*
X723900D01*
X726440Y1000760D01*
X723900Y998220D01*
X726440D01*
X728980Y995680D01*
X381650Y1021780D02*
Y1031940D01*
X391810D01*
Y1021780D01*
X381650D01*
X374650Y1025780D02*
Y1035940D01*
X384810D01*
Y1025780D01*
X374650D01*
Y1033780D02*
Y1043940D01*
X384810D01*
Y1033780D01*
X374650D01*
X381650Y1037780D02*
Y1047940D01*
X391810D01*
Y1037780D01*
X381650D01*
X374650Y1041780D02*
Y1051940D01*
X384810D01*
Y1041780D01*
X374650D01*
X381650Y1045780D02*
Y1055940D01*
X391810D01*
Y1045780D01*
X381650D01*
Y1053780D02*
Y1063940D01*
X391810D01*
Y1053780D01*
X381650D01*
X374650Y1057780D02*
Y1067940D01*
X384810D01*
Y1057780D01*
X374650D01*
X381650Y1061780D02*
Y1071940D01*
X391810D01*
Y1061780D01*
X381650D01*
X374650Y1065780D02*
Y1075940D01*
X384810D01*
Y1065780D01*
X374650D01*
Y1073780D02*
Y1083940D01*
X384810D01*
Y1073780D01*
X374650D01*
X381650Y1077780D02*
Y1087940D01*
X391810D01*
Y1077780D01*
X381650D01*
Y1069780D02*
Y1079940D01*
X391810D01*
Y1069780D01*
X381650D01*
Y1029780D02*
Y1039940D01*
X391810D01*
Y1029780D01*
X381650D01*
X727710Y962660D02*
X722630Y972820D01*
X732790D01*
X727710Y962660D01*
X702310D02*
X697230Y972820D01*
X707390D01*
X702310Y962660D01*
X676910D02*
X671830Y972820D01*
X681990D01*
X676910Y962660D01*
X651510D02*
X646430Y972820D01*
X656590D01*
X651510Y962660D01*
X626110D02*
X621030Y972820D01*
X631190D01*
X626110Y962660D01*
X600710D02*
X595630Y972820D01*
X605790D01*
X600710Y962660D01*
X575310D02*
X570230Y972820D01*
X580390D01*
X575310Y962660D01*
X549910D02*
X544830Y972820D01*
X554990D01*
X549910Y962660D01*
X524510D02*
X519430Y972820D01*
X529590D01*
X524510Y962660D01*
X499110D02*
X494030Y972820D01*
X504190D01*
X499110Y962660D01*
X473710D02*
X468630Y972820D01*
X478790D01*
X473710Y962660D01*
X448310D02*
X443230Y972820D01*
X453390D01*
X448310Y962660D01*
X422910D02*
X417830Y972820D01*
X427990D01*
X422910Y962660D01*
X397510D02*
X392430Y972820D01*
X402590D01*
X397510Y962660D01*
X372110D02*
X367030Y972820D01*
X377190D01*
X372110Y962660D01*
X346710D02*
X341630Y972820D01*
X351790D01*
X346710Y962660D01*
X435053Y1056955D02*
X437593Y1062035D01*
X435053Y1067115D01*
X440133Y1064575D01*
X445213Y1067115D01*
X442673Y1062035D01*
X445213Y1056955D01*
X440133Y1059495D01*
X435053Y1056955D01*
X523494Y1155446D02*
X526034Y1160526D01*
X523494Y1165606D01*
X528574Y1163066D01*
X533654Y1165606D01*
X531114Y1160526D01*
X533654Y1155446D01*
X528574Y1157986D01*
X523494Y1155446D01*
X496062D02*
X498602Y1160526D01*
X496062Y1165606D01*
X501142Y1163066D01*
X506222Y1165606D01*
X503682Y1160526D01*
X506222Y1155446D01*
X501142Y1157986D01*
X496062Y1155446D01*
X461518Y1162050D02*
X464058Y1167130D01*
X461518Y1172210D01*
X466598Y1169670D01*
X471678Y1172210D01*
X469138Y1167130D01*
X471678Y1162050D01*
X466598Y1164590D01*
X461518Y1162050D01*
X514096Y1155700D02*
X516636Y1160780D01*
X514096Y1165860D01*
X519176Y1163320D01*
X524256Y1165860D01*
X521716Y1160780D01*
X524256Y1155700D01*
X519176Y1158240D01*
X514096Y1155700D01*
X436372Y1065530D02*
X438912Y1070610D01*
X436372Y1075690D01*
X441452Y1073150D01*
X446532Y1075690D01*
X443992Y1070610D01*
X446532Y1065530D01*
X441452Y1068070D01*
X436372Y1065530D01*
X431292Y1049782D02*
X433832Y1054862D01*
X431292Y1059942D01*
X436372Y1057402D01*
X441452Y1059942D01*
X438912Y1054862D01*
X441452Y1049782D01*
X436372Y1052322D01*
X431292Y1049782D01*
X454914Y1094486D02*
X457454Y1099566D01*
X454914Y1104646D01*
X459994Y1102106D01*
X465074Y1104646D01*
X462534Y1099566D01*
X465074Y1094486D01*
X459994Y1097026D01*
X454914Y1094486D01*
X569468Y1108837D02*
X572008Y1113917D01*
X569468Y1118997D01*
X574548Y1116457D01*
X579628Y1118997D01*
X577088Y1113917D01*
X579628Y1108837D01*
X574548Y1111377D01*
X569468Y1108837D01*
X496824Y1108456D02*
X499364Y1113536D01*
X496824Y1118616D01*
X501904Y1116076D01*
X506984Y1118616D01*
X504444Y1113536D01*
X506984Y1108456D01*
X501904Y1110996D01*
X496824Y1108456D01*
X514350Y1160780D02*
X516890Y1165860D01*
X514350Y1170940D01*
X519430Y1168400D01*
X524510Y1170940D01*
X521970Y1165860D01*
X524510Y1160780D01*
X519430Y1163320D01*
X514350Y1160780D01*
X424942Y1088136D02*
X427482Y1093216D01*
X424942Y1098296D01*
X430022Y1095756D01*
X435102Y1098296D01*
X432562Y1093216D01*
X435102Y1088136D01*
X430022Y1090676D01*
X424942Y1088136D01*
X530606Y996950D02*
X533146Y1002030D01*
X530606Y1007110D01*
X535686Y1004570D01*
X540766Y1007110D01*
X538226Y1002030D01*
X540766Y996950D01*
X535686Y999490D01*
X530606Y996950D01*
X539865Y1012611D02*
X542405Y1017691D01*
X539865Y1022772D01*
X544945Y1020231D01*
X550025Y1022772D01*
X547485Y1017691D01*
X550025Y1012611D01*
X544945Y1015152D01*
X539865Y1012611D01*
X539750Y1019810D02*
X542290Y1024890D01*
X539750Y1029970D01*
X544830Y1027430D01*
X549910Y1029970D01*
X547370Y1024890D01*
X549910Y1019810D01*
X544830Y1022350D01*
X539750Y1019810D01*
X550579Y1061559D02*
X553119Y1066639D01*
X550579Y1071719D01*
X555659Y1069179D01*
X560739Y1071719D01*
X558199Y1066639D01*
X560739Y1061559D01*
X555659Y1064099D01*
X550579Y1061559D01*
X549202Y1074420D02*
X551742Y1079500D01*
X549202Y1084580D01*
X554282Y1082040D01*
X559362Y1084580D01*
X556822Y1079500D01*
X559362Y1074420D01*
X554282Y1076960D01*
X549202Y1074420D01*
X473710Y996696D02*
X476250Y1001776D01*
X473710Y1006856D01*
X478790Y1004316D01*
X483870Y1006856D01*
X481330Y1001776D01*
X483870Y996696D01*
X478790Y999236D01*
X473710Y996696D01*
X592074Y1083056D02*
X594614Y1088136D01*
X592074Y1093216D01*
X597154Y1090676D01*
X602234Y1093216D01*
X599694Y1088136D01*
X602234Y1083056D01*
X597154Y1085596D01*
X592074Y1083056D01*
X525420Y1041802D02*
X527960Y1046882D01*
X525420Y1051962D01*
X530500Y1049422D01*
X535580Y1051962D01*
X533040Y1046882D01*
X535580Y1041802D01*
X530500Y1044342D01*
X525420Y1041802D01*
X520420Y1013460D02*
X522960Y1018540D01*
X520420Y1023620D01*
X525500Y1021080D01*
X530580Y1023620D01*
X528040Y1018540D01*
X530580Y1013460D01*
X525500Y1016000D01*
X520420Y1013460D01*
X475420Y1078044D02*
X477960Y1083124D01*
X475420Y1088204D01*
X480500Y1085664D01*
X485580Y1088204D01*
X483040Y1083124D01*
X485580Y1078044D01*
X480500Y1080584D01*
X475420Y1078044D01*
X485140Y1045210D02*
X487680Y1050290D01*
X485140Y1055370D01*
X490220Y1052830D01*
X495300Y1055370D01*
X492760Y1050290D01*
X495300Y1045210D01*
X490220Y1047750D01*
X485140Y1045210D01*
X487680Y1060166D02*
X490220Y1065246D01*
X487680Y1070326D01*
X492760Y1067786D01*
X497840Y1070326D01*
X495300Y1065246D01*
X497840Y1060166D01*
X492760Y1062706D01*
X487680Y1060166D01*
X436372Y1119378D02*
X438912Y1124458D01*
X436372Y1129538D01*
X441452Y1126998D01*
X446532Y1129538D01*
X443992Y1124458D01*
X446532Y1119378D01*
X441452Y1121918D01*
X436372Y1119378D01*
X402082Y1045780D02*
X404622Y1050860D01*
X402082Y1055940D01*
X407162Y1053400D01*
X412242Y1055940D01*
X409702Y1050860D01*
X412242Y1045780D01*
X407162Y1048320D01*
X402082Y1045780D01*
X550672Y1078738D02*
X553212Y1083818D01*
X550672Y1088898D01*
X555752Y1086358D01*
X560832Y1088898D01*
X558292Y1083818D01*
X560832Y1078738D01*
X555752Y1081278D01*
X550672Y1078738D01*
X567690Y1033526D02*
X570230Y1038606D01*
X567690Y1043686D01*
X572770Y1041146D01*
X577850Y1043686D01*
X575310Y1038606D01*
X577850Y1033526D01*
X572770Y1036066D01*
X567690Y1033526D01*
X433430Y1110890D02*
X435970Y1115970D01*
X433430Y1121050D01*
X438510Y1118510D01*
X443590Y1121050D01*
X441050Y1115970D01*
X443590Y1110890D01*
X438510Y1113430D01*
X433430Y1110890D01*
X361950Y1182370D02*
X364490Y1187450D01*
X361950Y1192530D01*
X367030Y1189990D01*
X372110Y1192530D01*
X369570Y1187450D01*
X372110Y1182370D01*
X367030Y1184910D01*
X361950Y1182370D01*
X458978Y1152144D02*
X461518Y1157224D01*
X458978Y1162304D01*
X464058Y1159764D01*
X469138Y1162304D01*
X466598Y1157224D01*
X469138Y1152144D01*
X464058Y1154684D01*
X458978Y1152144D01*
X530420Y1087882D02*
X532960Y1092962D01*
X530420Y1098042D01*
X535500Y1095502D01*
X540580Y1098042D01*
X538040Y1092962D01*
X540580Y1087882D01*
X535500Y1090422D01*
X530420Y1087882D01*
X470420Y1062458D02*
X472960Y1067538D01*
X470420Y1072618D01*
X475500Y1070078D01*
X480580Y1072618D01*
X478040Y1067538D01*
X480580Y1062458D01*
X475500Y1064998D01*
X470420Y1062458D01*
X465836Y1056132D02*
X468376Y1061212D01*
X465836Y1066292D01*
X470916Y1063752D01*
X475996Y1066292D01*
X473456Y1061212D01*
X475996Y1056132D01*
X470916Y1058672D01*
X465836Y1056132D01*
X600456Y1057910D02*
X602996Y1062990D01*
X600456Y1068070D01*
X605536Y1065530D01*
X610616Y1068070D01*
X608076Y1062990D01*
X610616Y1057910D01*
X605536Y1060450D01*
X600456Y1057910D01*
X453644Y1037590D02*
X456184Y1042670D01*
X453644Y1047750D01*
X458724Y1045210D01*
X463804Y1047750D01*
X461264Y1042670D01*
X463804Y1037590D01*
X458724Y1040130D01*
X453644Y1037590D01*
X456565Y1065022D02*
X459105Y1070102D01*
X456565Y1075182D01*
X461645Y1072642D01*
X466725Y1075182D01*
X464185Y1070102D01*
X466725Y1065022D01*
X461645Y1067562D01*
X456565Y1065022D01*
X439674Y1134618D02*
X442214Y1139698D01*
X439674Y1144778D01*
X444754Y1142238D01*
X449834Y1144778D01*
X447294Y1139698D01*
X449834Y1134618D01*
X444754Y1137158D01*
X439674Y1134618D01*
X519060Y986282D02*
X521600Y991362D01*
X519060Y996442D01*
X524140Y993902D01*
X529220Y996442D01*
X526680Y991362D01*
X529220Y986282D01*
X524140Y988822D01*
X519060Y986282D01*
X552196Y1046480D02*
X554736Y1051560D01*
X552196Y1056640D01*
X557276Y1054100D01*
X562356Y1056640D01*
X559816Y1051560D01*
X562356Y1046480D01*
X557276Y1049020D01*
X552196Y1046480D01*
X515112Y1040638D02*
X517652Y1045718D01*
X515112Y1050798D01*
X520192Y1048258D01*
X525272Y1050798D01*
X522732Y1045718D01*
X525272Y1040638D01*
X520192Y1043178D01*
X515112Y1040638D01*
X451358Y1047242D02*
X453898Y1052322D01*
X451358Y1057402D01*
X456438Y1054862D01*
X461518Y1057402D01*
X458978Y1052322D01*
X461518Y1047242D01*
X456438Y1049782D01*
X451358Y1047242D01*
X505420Y1045464D02*
X507960Y1050544D01*
X505420Y1055624D01*
X510500Y1053084D01*
X515580Y1055624D01*
X513040Y1050544D01*
X515580Y1045464D01*
X510500Y1048004D01*
X505420Y1045464D01*
X454914Y953262D02*
X457454Y958342D01*
X454914Y963422D01*
X459994Y960882D01*
X465074Y963422D01*
X462534Y958342D01*
X465074Y953262D01*
X459994Y955802D01*
X454914Y953262D01*
X529590Y1105408D02*
X532130Y1110488D01*
X529590Y1115568D01*
X534670Y1113028D01*
X539750Y1115568D01*
X537210Y1110488D01*
X539750Y1105408D01*
X534670Y1107948D01*
X529590Y1105408D01*
D83*
X380310Y1097560D02*
G03*
X380310Y1097560I-5080J0D01*
G01*
Y1012160D02*
G03*
X380310Y1012160I-5080J0D01*
G01*
X333010Y1097560D02*
G03*
X333010Y1097560I-5080J0D01*
G01*
Y1012160D02*
G03*
X333010Y1012160I-5080J0D01*
G01*
M02*
